{"accessors":[{"bufferView":0,"byteOffset":0,"componentType":5126,"count":4,"max":[0.08023000000000001,0.0158,-0.10406],"min":[0.08023000000000001,0.012199999999999999,-0.11506000000000001],"type":"VEC3"},{"bufferView":0,"byteOffset":48,"componentType":5126,"count":195,"max":[0.09623001200683395,0.012199999999999999,-0.10406],"min":[0.08023000000000001,0.012199999999999999,-0.12006],"type":"VEC3"},{"bufferView":0,"byteOffset":2388,"componentType":5126,"count":66,"max":[0.08523,0.0158,-0.11506000000000001],"min":[0.08023000000000001,0.012199999999999999,-0.12006],"type":"VEC3"},{"bufferView":0,"byteOffset":3180,"componentType":5126,"count":12,"max":[0.08823,0.024,-0.10406],"min":[0.004999999999999999,0.0,-0.10406000000000004],"type":"VEC3"},{"bufferView":0,"byteOffset":3324,"componentType":5126,"count":195,"max":[0.09623001200683395,0.0158,-0.10406],"min":[0.08023000000000001,0.0158,-0.12006],"type":"VEC3"},{"bufferView":0,"byteOffset":5664,"componentType":5126,"count":4,"max":[0.09123001200684835,0.0158,-0.12006],"min":[0.08523,0.012199999999999999,-0.12006],"type":"VEC3"},{"bufferView":0,"byteOffset":5712,"componentType":5126,"count":4,"max":[0.09623000000000001,0.0158,-0.10406],"min":[0.08823,0.012199999999999999,-0.10406],"type":"VEC3"},{"bufferView":0,"byteOffset":5760,"componentType":5126,"count":66,"max":[0.09623001200683395,0.0158,-0.11506001200686276],"min":[0.09123001200684835,0.012199999999999999,-0.12006],"type":"VEC3"},{"bufferView":0,"byteOffset":6552,"componentType":5126,"count":4,"max":[0.09623001200683395,0.0158,-0.10406],"min":[0.09623000000000001,0.012199999999999999,-0.11506001200686276],"type":"VEC3"},{"bufferView":0,"byteOffset":6600,"componentType":5126,"count":254,"max":[0.09173,0.0158,-0.10856108786299715],"min":[0.08473,0.012199999999999999,-0.11555891213700287],"type":"VEC3"},{"bufferView":0,"byteOffset":9648,"componentType":5126,"count":68,"max":[0.08823,0.0,1e-18],"min":[-1e-18,0.0,-0.10406000000000004],"type":"VEC3"},{"bufferView":0,"byteOffset":10464,"componentType":5126,"count":66,"max":[0.004999999999999999,0.024,-0.09906000000000005],"min":[-1e-18,0.0,-0.10406000000000004],"type":"VEC3"},{"bufferView":0,"byteOffset":11256,"componentType":5126,"count":24,"max":[0.08823,0.024,0.0],"min":[0.08823,0.0,-0.10406],"type":"VEC3"},{"bufferView":0,"byteOffset":11544,"componentType":5126,"count":72,"max":[0.08823,0.024,1e-18],"min":[-1e-18,0.024,-0.10406000000000004],"type":"VEC3"},{"bufferView":0,"byteOffset":12408,"componentType":5126,"count":195,"max":[0.09623001200683395,0.004200000000000001,-0.10406],"min":[0.08023000000000001,0.004200000000000001,-0.12006],"type":"VEC3"},{"bufferView":0,"byteOffset":14748,"componentType":5126,"count":4,"max":[0.08023000000000001,0.0078,-0.10406],"min":[0.08023000000000001,0.004200000000000001,-0.11506000000000001],"type":"VEC3"},{"bufferView":0,"byteOffset":14796,"componentType":5126,"count":195,"max":[0.09623001200683395,0.0078,-0.10406],"min":[0.08023000000000001,0.0078,-0.12006],"type":"VEC3"},{"bufferView":0,"byteOffset":17136,"componentType":5126,"count":4,"max":[-1e-18,0.024,-0.004999999999999999],"min":[-1e-18,0.0,-0.09906000000000005],"type":"VEC3"},{"bufferView":0,"byteOffset":17184,"componentType":5126,"count":12,"max":[0.08823,0.024,1e-18],"min":[0.004999999999999999,0.0,0.0],"type":"VEC3"},{"bufferView":0,"byteOffset":17328,"componentType":5126,"count":66,"max":[0.004999999999999999,0.024,1e-18],"min":[-1e-18,0.0,-0.004999999999999999],"type":"VEC3"},{"bufferView":0,"byteOffset":18120,"componentType":5126,"count":4,"max":[0.09623000000000001,0.0078,-0.10406],"min":[0.08823,0.004200000000000001,-0.10406],"type":"VEC3"},{"bufferView":0,"byteOffset":18168,"componentType":5126,"count":4,"max":[0.08823,0.024,-0.09906000000000001],"min":[0.005,0.022,-0.09906000000000001],"type":"VEC3"},{"bufferView":0,"byteOffset":18216,"componentType":5126,"count":8,"max":[0.08823,0.022,-0.002],"min":[0.002,0.022,-0.10206],"type":"VEC3"},{"bufferView":0,"byteOffset":18312,"componentType":5126,"count":4,"max":[0.08823,0.022,-0.10206],"min":[0.002,0.02,-0.10206],"type":"VEC3"},{"bufferView":0,"byteOffset":18360,"componentType":5126,"count":8,"max":[0.08823,0.02,-0.002],"min":[0.002,0.02,-0.10206],"type":"VEC3"},{"bufferView":0,"byteOffset":18456,"componentType":5126,"count":4,"max":[0.08823,0.02,-0.09906000000000001],"min":[0.005,0.005,-0.09906000000000001],"type":"VEC3"},{"bufferView":0,"byteOffset":18504,"componentType":5126,"count":4,"max":[0.08823,0.005,-0.005],"min":[0.005,0.005,-0.09906000000000001],"type":"VEC3"},{"bufferView":0,"byteOffset":18552,"componentType":5126,"count":4,"max":[0.08823,0.02,-0.005],"min":[0.005,0.005,-0.005],"type":"VEC3"},{"bufferView":0,"byteOffset":18600,"componentType":5126,"count":4,"max":[0.08823,0.022,-0.002],"min":[0.002,0.02,-0.002],"type":"VEC3"},{"bufferView":0,"byteOffset":18648,"componentType":5126,"count":4,"max":[0.08823,0.024,-0.005],"min":[0.005,0.022,-0.005],"type":"VEC3"},{"bufferView":0,"byteOffset":18696,"componentType":5126,"count":4,"max":[0.09623000000000001,0.011800000000000001,0.0],"min":[0.08823,0.008199999999999999,0.0],"type":"VEC3"},{"bufferView":0,"byteOffset":18744,"componentType":5126,"count":4,"max":[0.09623000000000001,0.0198,0.0],"min":[0.08823,0.016200000000000003,0.0],"type":"VEC3"},{"bufferView":0,"byteOffset":18792,"componentType":5126,"count":4,"max":[0.005,0.024,-0.005],"min":[0.005,0.022,-0.09906000000000001],"type":"VEC3"},{"bufferView":0,"byteOffset":18840,"componentType":5126,"count":66,"max":[0.08523,0.0078,-0.11506000000000001],"min":[0.08023000000000001,0.004200000000000001,-0.12006],"type":"VEC3"},{"bufferView":0,"byteOffset":19632,"componentType":5126,"count":4,"max":[0.09123001200684835,0.0078,-0.12006],"min":[0.08523,0.004200000000000001,-0.12006],"type":"VEC3"},{"bufferView":0,"byteOffset":19680,"componentType":5126,"count":66,"max":[0.09623001200683395,0.0078,-0.11506001200686276],"min":[0.09123001200684835,0.004200000000000001,-0.12006],"type":"VEC3"},{"bufferView":0,"byteOffset":20472,"componentType":5126,"count":4,"max":[0.09623001200683395,0.0078,-0.10406],"min":[0.09623000000000001,0.004200000000000001,-0.11506001200686276],"type":"VEC3"},{"bufferView":0,"byteOffset":20520,"componentType":5126,"count":254,"max":[0.09173,0.0078,-0.10856108786299715],"min":[0.08473,0.004200000000000001,-0.11555891213700287],"type":"VEC3"},{"bufferView":0,"byteOffset":23568,"componentType":5126,"count":195,"max":[0.09623000000000001,0.008199999999999999,0.016],"min":[0.08023000000000001,0.008199999999999999,0.0],"type":"VEC3"},{"bufferView":0,"byteOffset":25908,"componentType":5126,"count":4,"max":[0.08023000000000001,0.011800000000000001,0.011],"min":[0.08023000000000001,0.008199999999999999,0.0],"type":"VEC3"},{"bufferView":0,"byteOffset":25956,"componentType":5126,"count":195,"max":[0.09623000000000001,0.0198,0.016],"min":[0.08023000000000001,0.0198,0.0],"type":"VEC3"},{"bufferView":0,"byteOffset":28296,"componentType":5126,"count":195,"max":[0.09623000000000001,0.011800000000000001,0.016],"min":[0.08023000000000001,0.011800000000000001,0.0],"type":"VEC3"},{"bufferView":0,"byteOffset":30636,"componentType":5126,"count":4,"max":[0.08023000000000001,0.0198,0.011],"min":[0.08023000000000001,0.016200000000000003,0.0],"type":"VEC3"},{"bufferView":0,"byteOffset":30684,"componentType":5126,"count":195,"max":[0.09623000000000001,0.016200000000000003,0.016],"min":[0.08023000000000001,0.016200000000000003,0.0],"type":"VEC3"},{"bufferView":0,"byteOffset":33024,"componentType":5126,"count":4,"max":[0.002,0.022,-0.002],"min":[0.002,0.02,-0.10206],"type":"VEC3"},{"bufferView":0,"byteOffset":33072,"componentType":5126,"count":4,"max":[0.005,0.02,-0.005],"min":[0.005,0.005,-0.09906000000000001],"type":"VEC3"},{"bufferView":0,"byteOffset":33120,"componentType":5126,"count":4,"max":[0.09623000000000001,0.011800000000000001,0.011],"min":[0.09623000000000001,0.008199999999999999,0.0],"type":"VEC3"},{"bufferView":0,"byteOffset":33168,"componentType":5126,"count":4,"max":[0.09623000000000001,0.0198,0.011],"min":[0.09623000000000001,0.016200000000000003,0.0],"type":"VEC3"},{"bufferView":0,"byteOffset":33216,"componentType":5126,"count":66,"max":[0.08523,0.011800000000000001,0.016],"min":[0.08023000000000001,0.008199999999999999,0.011],"type":"VEC3"},{"bufferView":0,"byteOffset":34008,"componentType":5126,"count":4,"max":[0.09123,0.011800000000000001,0.016],"min":[0.08523,0.008199999999999999,0.016],"type":"VEC3"},{"bufferView":0,"byteOffset":34056,"componentType":5126,"count":66,"max":[0.09623000000000001,0.011800000000000001,0.016],"min":[0.09123,0.008199999999999999,0.011],"type":"VEC3"},{"bufferView":0,"byteOffset":34848,"componentType":5126,"count":254,"max":[0.09173,0.011800000000000001,0.011498912137002859],"min":[0.08473,0.008199999999999999,0.0045010878629971425],"type":"VEC3"},{"bufferView":0,"byteOffset":37896,"componentType":5126,"count":66,"max":[0.08523,0.0198,0.016],"min":[0.08023000000000001,0.016200000000000003,0.011],"type":"VEC3"},{"bufferView":0,"byteOffset":38688,"componentType":5126,"count":4,"max":[0.09123,0.0198,0.016],"min":[0.08523,0.016200000000000003,0.016],"type":"VEC3"},{"bufferView":0,"byteOffset":38736,"componentType":5126,"count":66,"max":[0.09623000000000001,0.0198,0.016],"min":[0.09123,0.016200000000000003,0.011],"type":"VEC3"},{"bufferView":0,"byteOffset":39528,"componentType":5126,"count":254,"max":[0.09173,0.0198,0.011498912137002859],"min":[0.08473,0.016200000000000003,0.0045010878629971425],"type":"VEC3"},{"bufferView":1,"byteOffset":0,"componentType":5126,"count":4,"type":"VEC3"},{"bufferView":1,"byteOffset":48,"componentType":5126,"count":195,"type":"VEC3"},{"bufferView":1,"byteOffset":2388,"componentType":5126,"count":66,"type":"VEC3"},{"bufferView":1,"byteOffset":3180,"componentType":5126,"count":12,"type":"VEC3"},{"bufferView":1,"byteOffset":3324,"componentType":5126,"count":195,"type":"VEC3"},{"bufferView":1,"byteOffset":5664,"componentType":5126,"count":4,"type":"VEC3"},{"bufferView":1,"byteOffset":5712,"componentType":5126,"count":4,"type":"VEC3"},{"bufferView":1,"byteOffset":5760,"componentType":5126,"count":66,"type":"VEC3"},{"bufferView":1,"byteOffset":6552,"componentType":5126,"count":4,"type":"VEC3"},{"bufferView":1,"byteOffset":6600,"componentType":5126,"count":254,"type":"VEC3"},{"bufferView":1,"byteOffset":9648,"componentType":5126,"count":68,"type":"VEC3"},{"bufferView":1,"byteOffset":10464,"componentType":5126,"count":66,"type":"VEC3"},{"bufferView":1,"byteOffset":11256,"componentType":5126,"count":24,"type":"VEC3"},{"bufferView":1,"byteOffset":11544,"componentType":5126,"count":72,"type":"VEC3"},{"bufferView":1,"byteOffset":12408,"componentType":5126,"count":195,"type":"VEC3"},{"bufferView":1,"byteOffset":14748,"componentType":5126,"count":4,"type":"VEC3"},{"bufferView":1,"byteOffset":14796,"componentType":5126,"count":195,"type":"VEC3"},{"bufferView":1,"byteOffset":17136,"componentType":5126,"count":4,"type":"VEC3"},{"bufferView":1,"byteOffset":17184,"componentType":5126,"count":12,"type":"VEC3"},{"bufferView":1,"byteOffset":17328,"componentType":5126,"count":66,"type":"VEC3"},{"bufferView":1,"byteOffset":18120,"componentType":5126,"count":4,"type":"VEC3"},{"bufferView":1,"byteOffset":18168,"componentType":5126,"count":4,"type":"VEC3"},{"bufferView":1,"byteOffset":18216,"componentType":5126,"count":8,"type":"VEC3"},{"bufferView":1,"byteOffset":18312,"componentType":5126,"count":4,"type":"VEC3"},{"bufferView":1,"byteOffset":18360,"componentType":5126,"count":8,"type":"VEC3"},{"bufferView":1,"byteOffset":18456,"componentType":5126,"count":4,"type":"VEC3"},{"bufferView":1,"byteOffset":18504,"componentType":5126,"count":4,"type":"VEC3"},{"bufferView":1,"byteOffset":18552,"componentType":5126,"count":4,"type":"VEC3"},{"bufferView":1,"byteOffset":18600,"componentType":5126,"count":4,"type":"VEC3"},{"bufferView":1,"byteOffset":18648,"componentType":5126,"count":4,"type":"VEC3"},{"bufferView":1,"byteOffset":18696,"componentType":5126,"count":4,"type":"VEC3"},{"bufferView":1,"byteOffset":18744,"componentType":5126,"count":4,"type":"VEC3"},{"bufferView":1,"byteOffset":18792,"componentType":5126,"count":4,"type":"VEC3"},{"bufferView":1,"byteOffset":18840,"componentType":5126,"count":66,"type":"VEC3"},{"bufferView":1,"byteOffset":19632,"componentType":5126,"count":4,"type":"VEC3"},{"bufferView":1,"byteOffset":19680,"componentType":5126,"count":66,"type":"VEC3"},{"bufferView":1,"byteOffset":20472,"componentType":5126,"count":4,"type":"VEC3"},{"bufferView":1,"byteOffset":20520,"componentType":5126,"count":254,"type":"VEC3"},{"bufferView":1,"byteOffset":23568,"componentType":5126,"count":195,"type":"VEC3"},{"bufferView":1,"byteOffset":25908,"componentType":5126,"count":4,"type":"VEC3"},{"bufferView":1,"byteOffset":25956,"componentType":5126,"count":195,"type":"VEC3"},{"bufferView":1,"byteOffset":28296,"componentType":5126,"count":195,"type":"VEC3"},{"bufferView":1,"byteOffset":30636,"componentType":5126,"count":4,"type":"VEC3"},{"bufferView":1,"byteOffset":30684,"componentType":5126,"count":195,"type":"VEC3"},{"bufferView":1,"byteOffset":33024,"componentType":5126,"count":4,"type":"VEC3"},{"bufferView":1,"byteOffset":33072,"componentType":5126,"count":4,"type":"VEC3"},{"bufferView":1,"byteOffset":33120,"componentType":5126,"count":4,"type":"VEC3"},{"bufferView":1,"byteOffset":33168,"componentType":5126,"count":4,"type":"VEC3"},{"bufferView":1,"byteOffset":33216,"componentType":5126,"count":66,"type":"VEC3"},{"bufferView":1,"byteOffset":34008,"componentType":5126,"count":4,"type":"VEC3"},{"bufferView":1,"byteOffset":34056,"componentType":5126,"count":66,"type":"VEC3"},{"bufferView":1,"byteOffset":34848,"componentType":5126,"count":254,"type":"VEC3"},{"bufferView":1,"byteOffset":37896,"componentType":5126,"count":66,"type":"VEC3"},{"bufferView":1,"byteOffset":38688,"componentType":5126,"count":4,"type":"VEC3"},{"bufferView":1,"byteOffset":38736,"componentType":5126,"count":66,"type":"VEC3"},{"bufferView":1,"byteOffset":39528,"componentType":5126,"count":254,"type":"VEC3"},{"bufferView":2,"byteOffset":0,"componentType":5123,"count":6,"type":"SCALAR"},{"bufferView":2,"byteOffset":12,"componentType":5123,"count":585,"type":"SCALAR"},{"bufferView":2,"byteOffset":1184,"componentType":5123,"count":192,"type":"SCALAR"},{"bufferView":2,"byteOffset":1568,"componentType":5123,"count":30,"type":"SCALAR"},{"bufferView":2,"byteOffset":1628,"componentType":5123,"count":585,"type":"SCALAR"},{"bufferView":2,"byteOffset":2800,"componentType":5123,"count":6,"type":"SCALAR"},{"bufferView":2,"byteOffset":2812,"componentType":5123,"count":6,"type":"SCALAR"},{"bufferView":2,"byteOffset":2824,"componentType":5123,"count":192,"type":"SCALAR"},{"bufferView":2,"byteOffset":3208,"componentType":5123,"count":6,"type":"SCALAR"},{"bufferView":2,"byteOffset":3220,"componentType":5123,"count":756,"type":"SCALAR"},{"bufferView":2,"byteOffset":4732,"componentType":5123,"count":198,"type":"SCALAR"},{"bufferView":2,"byteOffset":5128,"componentType":5123,"count":192,"type":"SCALAR"},{"bufferView":2,"byteOffset":5512,"componentType":5123,"count":66,"type":"SCALAR"},{"bufferView":2,"byteOffset":5644,"componentType":5123,"count":210,"type":"SCALAR"},{"bufferView":2,"byteOffset":6064,"componentType":5123,"count":585,"type":"SCALAR"},{"bufferView":2,"byteOffset":7236,"componentType":5123,"count":6,"type":"SCALAR"},{"bufferView":2,"byteOffset":7248,"componentType":5123,"count":585,"type":"SCALAR"},{"bufferView":2,"byteOffset":8420,"componentType":5123,"count":6,"type":"SCALAR"},{"bufferView":2,"byteOffset":8432,"componentType":5123,"count":30,"type":"SCALAR"},{"bufferView":2,"byteOffset":8492,"componentType":5123,"count":192,"type":"SCALAR"},{"bufferView":2,"byteOffset":8876,"componentType":5123,"count":6,"type":"SCALAR"},{"bufferView":2,"byteOffset":8888,"componentType":5123,"count":6,"type":"SCALAR"},{"bufferView":2,"byteOffset":8900,"componentType":5123,"count":18,"type":"SCALAR"},{"bufferView":2,"byteOffset":8936,"componentType":5123,"count":6,"type":"SCALAR"},{"bufferView":2,"byteOffset":8948,"componentType":5123,"count":18,"type":"SCALAR"},{"bufferView":2,"byteOffset":8984,"componentType":5123,"count":6,"type":"SCALAR"},{"bufferView":2,"byteOffset":8996,"componentType":5123,"count":6,"type":"SCALAR"},{"bufferView":2,"byteOffset":9008,"componentType":5123,"count":6,"type":"SCALAR"},{"bufferView":2,"byteOffset":9020,"componentType":5123,"count":6,"type":"SCALAR"},{"bufferView":2,"byteOffset":9032,"componentType":5123,"count":6,"type":"SCALAR"},{"bufferView":2,"byteOffset":9044,"componentType":5123,"count":6,"type":"SCALAR"},{"bufferView":2,"byteOffset":9056,"componentType":5123,"count":6,"type":"SCALAR"},{"bufferView":2,"byteOffset":9068,"componentType":5123,"count":6,"type":"SCALAR"},{"bufferView":2,"byteOffset":9080,"componentType":5123,"count":192,"type":"SCALAR"},{"bufferView":2,"byteOffset":9464,"componentType":5123,"count":6,"type":"SCALAR"},{"bufferView":2,"byteOffset":9476,"componentType":5123,"count":192,"type":"SCALAR"},{"bufferView":2,"byteOffset":9860,"componentType":5123,"count":6,"type":"SCALAR"},{"bufferView":2,"byteOffset":9872,"componentType":5123,"count":756,"type":"SCALAR"},{"bufferView":2,"byteOffset":11384,"componentType":5123,"count":585,"type":"SCALAR"},{"bufferView":2,"byteOffset":12556,"componentType":5123,"count":6,"type":"SCALAR"},{"bufferView":2,"byteOffset":12568,"componentType":5123,"count":585,"type":"SCALAR"},{"bufferView":2,"byteOffset":13740,"componentType":5123,"count":585,"type":"SCALAR"},{"bufferView":2,"byteOffset":14912,"componentType":5123,"count":6,"type":"SCALAR"},{"bufferView":2,"byteOffset":14924,"componentType":5123,"count":585,"type":"SCALAR"},{"bufferView":2,"byteOffset":16096,"componentType":5123,"count":6,"type":"SCALAR"},{"bufferView":2,"byteOffset":16108,"componentType":5123,"count":6,"type":"SCALAR"},{"bufferView":2,"byteOffset":16120,"componentType":5123,"count":6,"type":"SCALAR"},{"bufferView":2,"byteOffset":16132,"componentType":5123,"count":6,"type":"SCALAR"},{"bufferView":2,"byteOffset":16144,"componentType":5123,"count":192,"type":"SCALAR"},{"bufferView":2,"byteOffset":16528,"componentType":5123,"count":6,"type":"SCALAR"},{"bufferView":2,"byteOffset":16540,"componentType":5123,"count":192,"type":"SCALAR"},{"bufferView":2,"byteOffset":16924,"componentType":5123,"count":756,"type":"SCALAR"},{"bufferView":2,"byteOffset":18436,"componentType":5123,"count":192,"type":"SCALAR"},{"bufferView":2,"byteOffset":18820,"componentType":5123,"count":6,"type":"SCALAR"},{"bufferView":2,"byteOffset":18832,"componentType":5123,"count":192,"type":"SCALAR"},{"bufferView":2,"byteOffset":19216,"componentType":5123,"count":756,"type":"SCALAR"}],"asset":{"generator":"Open CASCADE Technology 7.8 [dev.opencascade.org]","version":"2.0"},"bufferViews":[{"buffer":0,"byteLength":42576,"byteOffset":0,"byteStride":12,"target":34962},{"buffer":0,"byteLength":42576,"byteOffset":42576,"byteStride":12,"target":34962},{"buffer":0,"byteLength":20728,"byteOffset":85152,"target":34963}],"buffers":[{"byteLength":105880,"uri":"openvocakey.bin"}],"materials":[{"name":"mat_0","pbrMetallicRoughness":{"baseColorFactor":[0.41788509488105774,0.4620770215988159,0.5088813304901123,1.0]},"doubleSided":true}],"meshes":[{"name":"Fillet","primitives":[{"attributes":{"NORMAL":56,"POSITION":0},"indices":112,"material":0,"mode":4},{"attributes":{"NORMAL":57,"POSITION":1},"indices":113,"material":0,"mode":4},{"attributes":{"NORMAL":58,"POSITION":2},"indices":114,"material":0,"mode":4},{"attributes":{"NORMAL":59,"POSITION":3},"indices":115,"material":0,"mode":4},{"attributes":{"NORMAL":60,"POSITION":4},"indices":116,"material":0,"mode":4},{"attributes":{"NORMAL":61,"POSITION":5},"indices":117,"material":0,"mode":4},{"attributes":{"NORMAL":62,"POSITION":6},"indices":118,"material":0,"mode":4},{"attributes":{"NORMAL":63,"POSITION":7},"indices":119,"material":0,"mode":4},{"attributes":{"NORMAL":64,"POSITION":8},"indices":120,"material":0,"mode":4},{"attributes":{"NORMAL":65,"POSITION":9},"indices":121,"material":0,"mode":4},{"attributes":{"NORMAL":66,"POSITION":10},"indices":122,"material":0,"mode":4},{"attributes":{"NORMAL":67,"POSITION":11},"indices":123,"material":0,"mode":4},{"attributes":{"NORMAL":68,"POSITION":12},"indices":124,"material":0,"mode":4},{"attributes":{"NORMAL":69,"POSITION":13},"indices":125,"material":0,"mode":4},{"attributes":{"NORMAL":70,"POSITION":14},"indices":126,"material":0,"mode":4},{"attributes":{"NORMAL":71,"POSITION":15},"indices":127,"material":0,"mode":4},{"attributes":{"NORMAL":72,"POSITION":16},"indices":128,"material":0,"mode":4},{"attributes":{"NORMAL":73,"POSITION":17},"indices":129,"material":0,"mode":4},{"attributes":{"NORMAL":74,"POSITION":18},"indices":130,"material":0,"mode":4},{"attributes":{"NORMAL":75,"POSITION":19},"indices":131,"material":0,"mode":4},{"attributes":{"NORMAL":76,"POSITION":20},"indices":132,"material":0,"mode":4},{"attributes":{"NORMAL":77,"POSITION":21},"indices":133,"material":0,"mode":4},{"attributes":{"NORMAL":78,"POSITION":22},"indices":134,"material":0,"mode":4},{"attributes":{"NORMAL":79,"POSITION":23},"indices":135,"material":0,"mode":4},{"attributes":{"NORMAL":80,"POSITION":24},"indices":136,"material":0,"mode":4},{"attributes":{"NORMAL":81,"POSITION":25},"indices":137,"material":0,"mode":4},{"attributes":{"NORMAL":82,"POSITION":26},"indices":138,"material":0,"mode":4},{"attributes":{"NORMAL":83,"POSITION":27},"indices":139,"material":0,"mode":4},{"attributes":{"NORMAL":84,"POSITION":28},"indices":140,"material":0,"mode":4},{"attributes":{"NORMAL":85,"POSITION":29},"indices":141,"material":0,"mode":4},{"attributes":{"NORMAL":86,"POSITION":30},"indices":142,"material":0,"mode":4},{"attributes":{"NORMAL":87,"POSITION":31},"indices":143,"material":0,"mode":4},{"attributes":{"NORMAL":88,"POSITION":32},"indices":144,"material":0,"mode":4},{"attributes":{"NORMAL":89,"POSITION":33},"indices":145,"material":0,"mode":4},{"attributes":{"NORMAL":90,"POSITION":34},"indices":146,"material":0,"mode":4},{"attributes":{"NORMAL":91,"POSITION":35},"indices":147,"material":0,"mode":4},{"attributes":{"NORMAL":92,"POSITION":36},"indices":148,"material":0,"mode":4},{"attributes":{"NORMAL":93,"POSITION":37},"indices":149,"material":0,"mode":4},{"attributes":{"NORMAL":94,"POSITION":38},"indices":150,"material":0,"mode":4},{"attributes":{"NORMAL":95,"POSITION":39},"indices":151,"material":0,"mode":4},{"attributes":{"NORMAL":96,"POSITION":40},"indices":152,"material":0,"mode":4},{"attributes":{"NORMAL":97,"POSITION":41},"indices":153,"material":0,"mode":4},{"attributes":{"NORMAL":98,"POSITION":42},"indices":154,"material":0,"mode":4},{"attributes":{"NORMAL":99,"POSITION":43},"indices":155,"material":0,"mode":4},{"attributes":{"NORMAL":100,"POSITION":44},"indices":156,"material":0,"mode":4},{"attributes":{"NORMAL":101,"POSITION":45},"indices":157,"material":0,"mode":4},{"attributes":{"NORMAL":102,"POSITION":46},"indices":158,"material":0,"mode":4},{"attributes":{"NORMAL":103,"POSITION":47},"indices":159,"material":0,"mode":4},{"attributes":{"NORMAL":104,"POSITION":48},"indices":160,"material":0,"mode":4},{"attributes":{"NORMAL":105,"POSITION":49},"indices":161,"material":0,"mode":4},{"attributes":{"NORMAL":106,"POSITION":50},"indices":162,"material":0,"mode":4},{"attributes":{"NORMAL":107,"POSITION":51},"indices":163,"material":0,"mode":4},{"attributes":{"NORMAL":108,"POSITION":52},"indices":164,"material":0,"mode":4},{"attributes":{"NORMAL":109,"POSITION":53},"indices":165,"material":0,"mode":4},{"attributes":{"NORMAL":110,"POSITION":54},"indices":166,"material":0,"mode":4},{"attributes":{"NORMAL":111,"POSITION":55},"indices":167,"material":0,"mode":4}]}],"nodes":[{"mesh":0,"name":"Fillet"}],"scene":0,"scenes":[{"nodes":[0]}]}