M48
; DRILL file KiCad 10.0.1 date 2026-05-06T17:31:41
; FORMAT={-:-/ absolute / metric / decimal}
; #@! TF.CreationDate,2026-05-06T17:31:41+03:00
; #@! TF.GenerationSoftware,Kicad,Pcbnew,10.0.1
; #@! TF.FileFunction,NonPlated,1,2,NPTH
FMAT,2
METRIC
; #@! TA.AperFunction,NonPlated,NPTH,ComponentDrill
T1C1.700
; #@! TA.AperFunction,NonPlated,NPTH,ComponentDrill
T2C4.000
%
G90
G05
T1
X34.736Y-115.57
X34.736Y-125.73
X44.5Y-95.25
X44.5Y-105.41
X54.5Y-115.57
X54.5Y-125.73
X64.5Y-95.25
X64.5Y-105.41
X74.5Y-115.57
X74.5Y-125.73
X94.5Y-115.57
X94.5Y-125.73
X104.5Y-95.25
X104.5Y-105.41
X114.5Y-115.57
X114.5Y-125.73
X124.5Y-95.25
X124.5Y-105.41
X134.5Y-115.57
X134.5Y-125.73
X144.5Y-95.25
X144.5Y-105.41
X154.5Y-115.57
X154.5Y-125.73
X174.5Y-115.57
X174.5Y-125.73
T2
X34.736Y-120.65
X44.5Y-100.33
X54.5Y-120.65
X64.5Y-100.33
X74.5Y-120.65
X94.5Y-120.65
X104.5Y-100.33
X114.5Y-120.65
X124.5Y-100.33
X134.5Y-120.65
X144.5Y-100.33
X154.5Y-120.65
X174.5Y-120.65
M30
