%TF.GenerationSoftware,KiCad,Pcbnew,10.0.1*%
%TF.CreationDate,2026-05-06T17:31:39+03:00*%
%TF.ProjectId,board,626f6172-642e-46b6-9963-61645f706362,rev?*%
%TF.SameCoordinates,Original*%
%TF.FileFunction,Soldermask,Bot*%
%TF.FilePolarity,Negative*%
%FSLAX46Y46*%
G04 Gerber Fmt 4.6, Leading zero omitted, Abs format (unit mm)*
G04 Created by KiCad (PCBNEW 10.0.1) date 2026-05-06 17:31:39*
%MOMM*%
%LPD*%
G01*
G04 APERTURE LIST*
%ADD10R,1.700000X1.700000*%
%ADD11C,1.700000*%
%ADD12C,4.000000*%
%ADD13C,2.200000*%
G04 APERTURE END LIST*
D10*
%TO.C,J6*%
X160020000Y-49530000D03*
D11*
X157480000Y-49530000D03*
X154940000Y-49530000D03*
X152400000Y-49530000D03*
%TD*%
D10*
%TO.C,J5*%
X152400000Y-67310000D03*
D11*
X154940000Y-67310000D03*
X157480000Y-67310000D03*
X160020000Y-67310000D03*
%TD*%
%TO.C,SW8*%
X174500000Y-125730000D03*
D12*
X174500000Y-120650000D03*
D11*
X174500000Y-115570000D03*
D13*
X169420000Y-118110000D03*
X171960000Y-124460000D03*
%TD*%
D10*
%TO.C,J4*%
X53340000Y-66040000D03*
D11*
X55880000Y-66040000D03*
X58420000Y-66040000D03*
X60960000Y-66040000D03*
X63500000Y-66040000D03*
X66040000Y-66040000D03*
X68580000Y-66040000D03*
%TD*%
%TO.C,SW5*%
X114500000Y-125730000D03*
D12*
X114500000Y-120650000D03*
D11*
X114500000Y-115570000D03*
D13*
X109420000Y-118110000D03*
X111960000Y-124460000D03*
%TD*%
D10*
%TO.C,J3*%
X99060000Y-49000000D03*
D11*
X101600000Y-49000000D03*
X104140000Y-49000000D03*
X106680000Y-49000000D03*
%TD*%
%TO.C,SW2*%
X54500000Y-125730000D03*
D12*
X54500000Y-120650000D03*
D11*
X54500000Y-115570000D03*
D13*
X49420000Y-118110000D03*
X51960000Y-124460000D03*
%TD*%
D11*
%TO.C,SW13*%
X144500000Y-105410000D03*
D12*
X144500000Y-100330000D03*
D11*
X144500000Y-95250000D03*
D13*
X139420000Y-97790000D03*
X141960000Y-104140000D03*
%TD*%
D11*
%TO.C,SW12*%
X124500000Y-105410000D03*
D12*
X124500000Y-100330000D03*
D11*
X124500000Y-95250000D03*
D13*
X119420000Y-97790000D03*
X121960000Y-104140000D03*
%TD*%
D11*
%TO.C,SW11*%
X104500000Y-105410000D03*
D12*
X104500000Y-100330000D03*
D11*
X104500000Y-95250000D03*
D13*
X99420000Y-97790000D03*
X101960000Y-104140000D03*
%TD*%
D11*
%TO.C,SW3*%
X74500000Y-125730000D03*
D12*
X74500000Y-120650000D03*
D11*
X74500000Y-115570000D03*
D13*
X69420000Y-118110000D03*
X71960000Y-124460000D03*
%TD*%
D10*
%TO.C,J2*%
X185420000Y-45720000D03*
D11*
X182880000Y-45720000D03*
X180340000Y-45720000D03*
X177800000Y-45720000D03*
X175260000Y-45720000D03*
X172720000Y-45720000D03*
X170180000Y-45720000D03*
X167640000Y-45720000D03*
X165100000Y-45720000D03*
X162560000Y-45720000D03*
X160020000Y-45720000D03*
X157480000Y-45720000D03*
X154940000Y-45720000D03*
X152400000Y-45720000D03*
X149860000Y-45720000D03*
%TD*%
%TO.C,SW4*%
X94500000Y-125730000D03*
D12*
X94500000Y-120650000D03*
D11*
X94500000Y-115570000D03*
D13*
X89420000Y-118110000D03*
X91960000Y-124460000D03*
%TD*%
D11*
%TO.C,SW9*%
X44500000Y-105410000D03*
D12*
X44500000Y-100330000D03*
D11*
X44500000Y-95250000D03*
D13*
X39420000Y-97790000D03*
X41960000Y-104140000D03*
%TD*%
D10*
%TO.C,J1*%
X149860000Y-71120000D03*
D11*
X152400000Y-71120000D03*
X154940000Y-71120000D03*
X157480000Y-71120000D03*
X160020000Y-71120000D03*
X162560000Y-71120000D03*
X165100000Y-71120000D03*
X167640000Y-71120000D03*
X170180000Y-71120000D03*
X172720000Y-71120000D03*
X175260000Y-71120000D03*
X177800000Y-71120000D03*
X180340000Y-71120000D03*
X182880000Y-71120000D03*
X185420000Y-71120000D03*
%TD*%
%TO.C,SW7*%
X154500000Y-125730000D03*
D12*
X154500000Y-120650000D03*
D11*
X154500000Y-115570000D03*
D13*
X149420000Y-118110000D03*
X151960000Y-124460000D03*
%TD*%
D11*
%TO.C,SW6*%
X134500000Y-125730000D03*
D12*
X134500000Y-120650000D03*
D11*
X134500000Y-115570000D03*
D13*
X129420000Y-118110000D03*
X131960000Y-124460000D03*
%TD*%
D11*
%TO.C,SW10*%
X64500000Y-105410000D03*
D12*
X64500000Y-100330000D03*
D11*
X64500000Y-95250000D03*
D13*
X59420000Y-97790000D03*
X61960000Y-104140000D03*
%TD*%
D11*
%TO.C,SW1*%
X34736097Y-125730000D03*
D12*
X34736097Y-120650000D03*
D11*
X34736097Y-115570000D03*
D13*
X29656097Y-118110000D03*
X32196097Y-124460000D03*
%TD*%
M02*
