M48
; DRILL file KiCad 10.0.1 date 2026-05-06T17:31:41
; FORMAT={-:-/ absolute / metric / decimal}
; #@! TF.CreationDate,2026-05-06T17:31:41+03:00
; #@! TF.GenerationSoftware,Kicad,Pcbnew,10.0.1
; #@! TF.FileFunction,Plated,1,2,PTH
FMAT,2
METRIC
; #@! TA.AperFunction,Plated,PTH,ComponentDrill
T1C1.000
; #@! TA.AperFunction,Plated,PTH,ComponentDrill
T2C1.500
%
G90
G05
T1
X53.34Y-66.04
X55.88Y-66.04
X58.42Y-66.04
X60.96Y-66.04
X63.5Y-66.04
X66.04Y-66.04
X68.58Y-66.04
X99.06Y-49.0
X101.6Y-49.0
X104.14Y-49.0
X106.68Y-49.0
X149.86Y-45.72
X149.86Y-71.12
X152.4Y-45.72
X152.4Y-49.53
X152.4Y-67.31
X152.4Y-71.12
X154.94Y-45.72
X154.94Y-49.53
X154.94Y-67.31
X154.94Y-71.12
X157.48Y-45.72
X157.48Y-49.53
X157.48Y-67.31
X157.48Y-71.12
X160.02Y-45.72
X160.02Y-49.53
X160.02Y-67.31
X160.02Y-71.12
X162.56Y-45.72
X162.56Y-71.12
X165.1Y-45.72
X165.1Y-71.12
X167.64Y-45.72
X167.64Y-71.12
X170.18Y-45.72
X170.18Y-71.12
X172.72Y-45.72
X172.72Y-71.12
X175.26Y-45.72
X175.26Y-71.12
X177.8Y-45.72
X177.8Y-71.12
X180.34Y-45.72
X180.34Y-71.12
X182.88Y-45.72
X182.88Y-71.12
X185.42Y-45.72
X185.42Y-71.12
T2
X29.656Y-118.11
X32.196Y-124.46
X39.42Y-97.79
X41.96Y-104.14
X49.42Y-118.11
X51.96Y-124.46
X59.42Y-97.79
X61.96Y-104.14
X69.42Y-118.11
X71.96Y-124.46
X89.42Y-118.11
X91.96Y-124.46
X99.42Y-97.79
X101.96Y-104.14
X109.42Y-118.11
X111.96Y-124.46
X119.42Y-97.79
X121.96Y-104.14
X129.42Y-118.11
X131.96Y-124.46
X139.42Y-97.79
X141.96Y-104.14
X149.42Y-118.11
X151.96Y-124.46
X169.42Y-118.11
X171.96Y-124.46
M30
